<svg width="16" height="16" viewBox="0 0 16 16" fill="none" xmlns="http://www.w3.org/2000/svg">
<path fill-rule="evenodd" clip-rule="evenodd" d="M9.26666 0.384035L13.7641 2.9775C14.6491 3.49208 15.1637 4.36686 15.1637 5.39601V10.6035C15.1637 11.6327 14.6594 12.5075 13.7641 13.022L9.26666 15.6155C8.608 15.9963 7.86701 16.0992 7.17747 15.9037C7.17747 10.6344 7.17747 5.36514 7.17747 0.0855775C7.8773 -0.0893786 8.608 0.0032477 9.26666 0.384035ZM8.56683 14.4114L13.0642 11.8179C13.5171 11.5503 13.7641 11.1387 13.7641 10.6035V5.4063C13.7641 4.88143 13.5171 4.45948 13.0642 4.1919L8.56683 1.59843V14.4114ZM5.77783 15.2141L1.96996 13.022C1.08489 12.5075 0.570312 11.6327 0.570312 10.6035V5.4063C0.570312 4.37715 1.0746 3.50237 1.96996 2.98779L5.77783 0.795696V2.41147L2.66978 4.20219C2.21695 4.46977 1.96996 4.88143 1.96996 5.41659V10.6035C1.96996 11.1284 2.21695 11.5503 2.66978 11.8179L5.77783 13.6087V15.2141Z" fill="#FFB801"/>
</svg>
